<svg xmlns="http://www.w3.org/2000/svg" xmlns:xlink="http://www.w3.org/1999/xlink" width="1000" zoomAndPan="magnify" viewBox="0 0 750 749.999995" height="1000" preserveAspectRatio="xMidYMid meet" version="1.0"><defs><clipPath id="ed23dbe7f0"><path d="M 222 0.308594 L 443.558594 0.308594 L 443.558594 273 L 222 273 Z M 222 0.308594 " clip-rule="nonzero"/></clipPath><clipPath id="b253f7c74c"><path d="M 295.894531 6.707031 C 307.214844 2.84375 320.164062 0.308594 332.839844 0.308594 C 345.515625 0.308594 357.710938 2.484375 368.949219 6.347656 C 369.1875 6.464844 369.429688 6.464844 369.667969 6.585938 C 411.875 22.039062 442.960938 62.839844 443.558594 110.519531 L 443.558594 273 L 222 273 L 222 110.640625 C 222.597656 62.597656 253.207031 21.796875 295.894531 6.707031 Z M 295.894531 6.707031 " clip-rule="nonzero"/></clipPath><clipPath id="bed65cc834"><path d="M 0 0.308594 L 221.558594 0.308594 L 221.558594 273 L 0 273 Z M 0 0.308594 " clip-rule="nonzero"/></clipPath><clipPath id="b67dcd3a37"><path d="M 73.894531 6.707031 C 85.214844 2.84375 98.164062 0.308594 110.839844 0.308594 C 123.515625 0.308594 135.710938 2.484375 146.949219 6.347656 C 147.1875 6.464844 147.429688 6.464844 147.667969 6.585938 C 189.875 22.039062 220.960938 62.839844 221.558594 110.519531 L 221.558594 273 L 0 273 L 0 110.640625 C 0.597656 62.597656 31.207031 21.796875 73.894531 6.707031 Z M 73.894531 6.707031 " clip-rule="nonzero"/></clipPath><clipPath id="4447639252"><rect x="0" width="222" y="0" height="273"/></clipPath><clipPath id="4a8524ad58"><path d="M 0.441406 272.195312 L 222 272.195312 L 222 545.683594 L 0.441406 545.683594 Z M 0.441406 272.195312 " clip-rule="nonzero"/></clipPath><clipPath id="446c6fca91"><path d="M 148.105469 539.285156 C 136.785156 543.148438 123.835938 545.683594 111.160156 545.683594 C 98.484375 545.683594 86.289062 543.507812 75.050781 539.648438 C 74.8125 539.527344 74.570312 539.527344 74.332031 539.40625 C 32.125 523.953125 1.039062 483.152344 0.441406 435.472656 L 0.441406 272.992188 L 222 272.992188 L 222 435.351562 C 221.402344 483.394531 190.792969 524.195312 148.105469 539.285156 Z M 148.105469 539.285156 " clip-rule="nonzero"/></clipPath><clipPath id="d667faaadc"><path d="M 0.441406 1 L 222 1 L 222 273.683594 L 0.441406 273.683594 Z M 0.441406 1 " clip-rule="nonzero"/></clipPath><clipPath id="fcb4da9024"><path d="M 148.105469 267.285156 C 136.785156 271.148438 123.835938 273.683594 111.160156 273.683594 C 98.484375 273.683594 86.289062 271.507812 75.050781 267.648438 C 74.8125 267.527344 74.570312 267.527344 74.332031 267.40625 C 32.125 251.953125 1.039062 211.152344 0.441406 163.472656 L 0.441406 0.992188 L 222 0.992188 L 222 163.351562 C 221.402344 211.394531 190.792969 252.195312 148.105469 267.285156 Z M 148.105469 267.285156 " clip-rule="nonzero"/></clipPath><clipPath id="ddefe48505"><rect x="0" width="222" y="0" height="274"/></clipPath><clipPath id="a7872708fe"><rect x="0" width="444" y="0" height="546"/></clipPath></defs><g transform="matrix(1, 0, 0, 1, 153, 102)"><g clip-path="url(#a7872708fe)"><g clip-path="url(#ed23dbe7f0)"><g clip-path="url(#b253f7c74c)"><g transform="matrix(1, 0, 0, 1, 222, -0.000000000000071054)"><g clip-path="url(#4447639252)"><g clip-path="url(#bed65cc834)"><g clip-path="url(#b67dcd3a37)"><path fill="#000000" d="M 0 0.308594 L 221.558594 0.308594 L 221.558594 272.933594 L 0 272.933594 Z M 0 0.308594 " fill-opacity="1" fill-rule="nonzero"/></g></g></g></g></g></g><g clip-path="url(#4a8524ad58)"><g clip-path="url(#446c6fca91)"><g transform="matrix(1, 0, 0, 1, -0.000000000000028422, 272)"><g clip-path="url(#ddefe48505)"><g clip-path="url(#d667faaadc)"><g clip-path="url(#fcb4da9024)"><path fill="#000000" d="M 222 273.683594 L 0.441406 273.683594 L 0.441406 1.058594 L 222 1.058594 Z M 222 273.683594 " fill-opacity="1" fill-rule="nonzero"/></g></g></g></g></g></g></g></g></svg>