<svg xmlns="http://www.w3.org/2000/svg" xmlns:xlink="http://www.w3.org/1999/xlink" width="1000" zoomAndPan="magnify" viewBox="0 0 750 749.999995" height="1000" preserveAspectRatio="xMidYMid meet" version="1.0"><defs><clipPath id="529fe854a5"><path d="M 375 75 L 618.75 75 L 618.75 375 L 375 375 Z M 375 75 " clip-rule="nonzero"/></clipPath><clipPath id="b6262303fe"><path d="M 456.292969 82.039062 C 468.75 77.789062 482.996094 75 496.941406 75 C 510.882812 75 524.300781 77.390625 536.667969 81.640625 C 536.929688 81.773438 537.191406 81.773438 537.457031 81.90625 C 583.890625 98.90625 618.09375 143.792969 618.75 196.25 L 618.75 375 L 375 375 L 375 196.382812 C 375.65625 143.527344 409.332031 98.640625 456.292969 82.039062 Z M 456.292969 82.039062 " clip-rule="nonzero"/></clipPath><clipPath id="fef75d8e84"><path d="M 0 0 L 243.75 0 L 243.75 300 L 0 300 Z M 0 0 " clip-rule="nonzero"/></clipPath><clipPath id="4e87091b03"><path d="M 81.292969 7.039062 C 93.75 2.789062 107.996094 0 121.941406 0 C 135.882812 0 149.300781 2.390625 161.667969 6.640625 C 161.929688 6.773438 162.191406 6.773438 162.457031 6.90625 C 208.890625 23.90625 243.09375 68.792969 243.75 121.25 L 243.75 300 L 0 300 L 0 121.382812 C 0.65625 68.527344 34.332031 23.640625 81.292969 7.039062 Z M 81.292969 7.039062 " clip-rule="nonzero"/></clipPath><clipPath id="5623a114d0"><rect x="0" width="244" y="0" height="300"/></clipPath><clipPath id="d31d854902"><path d="M 131.25 375 L 375 375 L 375 675 L 131.25 675 Z M 131.25 375 " clip-rule="nonzero"/></clipPath><clipPath id="4709351339"><path d="M 293.707031 667.960938 C 281.25 672.210938 267.003906 675 253.058594 675 C 239.117188 675 225.699219 672.609375 213.332031 668.359375 C 213.070312 668.226562 212.808594 668.226562 212.542969 668.09375 C 166.109375 651.09375 131.90625 606.207031 131.25 553.75 L 131.25 375 L 375 375 L 375 553.617188 C 374.34375 606.472656 340.667969 651.359375 293.707031 667.960938 Z M 293.707031 667.960938 " clip-rule="nonzero"/></clipPath><clipPath id="5576b874fb"><path d="M 0.25 0 L 244 0 L 244 300 L 0.25 300 Z M 0.25 0 " clip-rule="nonzero"/></clipPath><clipPath id="4014f1a94f"><path d="M 162.707031 292.960938 C 150.25 297.210938 136.003906 300 122.058594 300 C 108.117188 300 94.699219 297.609375 82.332031 293.359375 C 82.070312 293.226562 81.808594 293.226562 81.542969 293.09375 C 35.109375 276.09375 0.90625 231.207031 0.25 178.75 L 0.25 0 L 244 0 L 244 178.617188 C 243.34375 231.472656 209.667969 276.359375 162.707031 292.960938 Z M 162.707031 292.960938 " clip-rule="nonzero"/></clipPath><clipPath id="0e95213657"><rect x="0" width="244" y="0" height="300"/></clipPath></defs><g clip-path="url(#529fe854a5)"><g clip-path="url(#b6262303fe)"><g transform="matrix(1, 0, 0, 1, 375, 75)"><g clip-path="url(#5623a114d0)"><g clip-path="url(#fef75d8e84)"><g clip-path="url(#4e87091b03)"><path fill="#ffffff" d="M 0 0 L 243.75 0 L 243.75 299.925781 L 0 299.925781 Z M 0 0 " fill-opacity="1" fill-rule="nonzero"/></g></g></g></g></g></g><g clip-path="url(#d31d854902)"><g clip-path="url(#4709351339)"><g transform="matrix(1, 0, 0, 1, 131, 375)"><g clip-path="url(#0e95213657)"><g clip-path="url(#5576b874fb)"><g clip-path="url(#4014f1a94f)"><path fill="#ffffff" d="M 244 300 L 0.25 300 L 0.25 0.0742188 L 244 0.0742188 Z M 244 300 " fill-opacity="1" fill-rule="nonzero"/></g></g></g></g></g></g></svg>